<svg height="504pt" viewBox="0 -91 504.42754 504" width="504pt" xmlns="http://www.w3.org/2000/svg"><path d="m495.820312 177.6875-16.730468-83.617188-5.671875-34.09375c-2.175781-13.21875-12.1875-23.78125-25.273438-26.65625l-58.871093-13.085937-48.203126-18.078125c-14.480468-5.453125-30.734374.929688-37.628906 14.78125l-15.882812 31.765625c-.640625 1.242187-1.113282 2.558594-1.410156 3.921875l-7.796876 32.734375c-.140624.738281-.382812 1.453125-.722656 2.125l-4.910156 9.808594c-1.488281 1.117187-2.566406 2.695312-3.0625 4.492187-.152344.691406-.230469 1.398438-.234375 2.105469l-5.816406 11.632813c-.523438.972656-1.234375 1.828124-2.089844 2.519531-3.253906.3125-6.113281 2.289062-7.554687 5.222656-.109376.234375-.175782.570313-.277344.835937l-14.871094 11.164063c-3.605469-.09375-7 1.699219-8.949219 4.734375-.460937.695312-.863281 1.429688-1.199219 2.191406l-8.941406 4.472656c-3.234375-1.347656-6.933594-.957031-9.820312 1.035157-2.449219 1.683593-4.394532 4.007812-5.628906 6.710937l-18.132813 9.007813c-3.234375-1.34375-6.933594-.953125-9.820313 1.03125-2.449218 1.6875-4.394531 4.007812-5.628906 6.714843l-17 8.496094c-3.347656-.773437-6.820312.621094-8.710937 3.492188-32.433594 8.804687-59.871094 16.046875-88.566407 22.148437-1.847656.394531-3.726562.746094-5.625 1.09375-6.5.953125-12.863281 2.671875-18.960937 5.117188-22.117187 9.769531-31.8359375 38.652343-31.660156 62.953125-1.4375 13.28125 6.417969 25.816406 18.996093 30.316406 25.789063 11.890625 53.933594 17.796875 82.332032 17.273438h372.515625c11.511719.035156 22.046875-6.472657 27.160156-16.789063.648437-1.324219 1.230469-2.683594 1.738281-4.070313.964844-1.398437 1.480469-3.058593 1.46875-4.757812v-58.316406c.160156-4.460938-.078125-8.925782-.703125-13.347656zm-473.578124 68.246094c.582031.359375 1.210937.644531 1.863281.839844 28.320312 6.714843 95.183593 7.855468 119.128906 8.066406.074219.027344.148437.050781.226563.066406h1.964843 6.429688c.304687-.027344.605469-.070312.90625-.132812 114.234375-2.644532 151.382812-53.289063 156.796875-61.761719 7.054687 2.144531 14.40625 3.144531 21.773437 2.964843 30.167969 0 78.007813-11.851562 143.949219-35.410156l2.878906 14.402344c-13.25 4.996094-26.910156 8.824219-40.828125 11.429688-12.800781 2.257812-25.339843 5.808593-37.425781 10.59375-17.996094 9.007812-26.480469 55.546874-29.242188 74.703124h-67.726562c-247.605469 0-280.140625-7.253906-282.449219-7.867187-.878906-.308594-1.804687-.472656-2.734375-.476563.753906-5.972656 2.261719-11.824218 4.488282-17.417968zm441.226562-144.367188 2.519531 12.464844c-.375.1875-.734375.40625-1.074219.65625-2.097656 1.914062-14.804687 7.167969-47.84375 13.320312-2.085937.386719-4.242187-.035156-6.027343-1.183593l-71.503907-45.503907c-1.972656-1.253906-3.332031-3.273437-3.75-5.574218-.417968-2.300782.140626-4.675782 1.542969-6.542969l6.582031-8.78125c2.277344-3.035156 6.3125-4.164063 9.835938-2.753906zm-56.058594 110.535156c10.890625-4.097656 22.125-7.203124 33.574219-9.277343 13.632813-2.683594 27.058594-6.328125 40.179687-10.910157l5.933594 35.628907c.472656 3.503906.636719 7.042969.496094 10.578125v33.574218h-99.949219c4.144531-26.617187 12.757813-56.136718 19.765625-59.59375zm-114.761718-117.089843c.964843-1.910157 1.671874-3.9375 2.105468-6.035157l7.804688-32.734374 15.890625-31.792969c3.058593-6.15625 10.285156-8.996094 16.71875-6.566407l48.261719 18.105469c.71875.257813 1.453124.472657 2.199218.636719l58.863282 13.085938c6.382812 1.398437 11.277343 6.539062 12.355468 12.984374l3.230469 19.375-100.066406-40.011718c-10.570313-4.207032-22.648438-.824219-29.492188 8.265625l-6.597656 8.78125c-4.203125 5.605469-5.882813 12.707031-4.632813 19.601562 1.25 6.890625 5.316407 12.953125 11.21875 16.722657l71.515626 45.503906c5.363281 3.4375 11.839843 4.699218 18.101562 3.523437 16.894531-2.445312 33.441406-6.867187 49.304688-13.167969l2.519531 12.648438c-136.167969 48.898438-158.871094 33.960938-162.046875 30.382812-2.515625-2.8125-.46875-7.703124.53125-9.675781 1.347656-2.683593 1.164062-5.878906-.480469-8.386719-1.648437-2.511718-4.507813-3.949218-7.503906-3.777343-2.996094.171875-5.675781 1.929687-7.023438 4.609375-4.789062 8.148437-4.648437 18.285156.367188 26.296875 0 .074219-.125.109375-.167969.191406-.292969.523437-30.03125 50.640625-139.496094 54.273437-3.433594-8.117187-1.359375-26.941406 2.199219-41.78125l11.683594-5.878906c1.132812 4.125 2.683593 8.125 4.625 11.9375 1.425781 2.859375 4.355469 4.660156 7.550781 4.640625 2.90625-.003906 5.605469-1.511719 7.132812-3.984375 1.523438-2.472656 1.664063-5.558594.363282-8.160156-2.0625-3.800781-3.445313-7.929688-4.09375-12.203125l18.003906-8.929687c1.132812 4.121093 2.683594 8.121093 4.625 11.933593 1.425781 2.859375 4.355469 4.660157 7.550781 4.640625 2.90625-.003906 5.605469-1.511718 7.132813-3.984375 1.523437-2.472656 1.664062-5.558593.363281-8.160156-2.0625-3.800781-3.445313-7.929687-4.09375-12.203125l10.953125-5.480469c3.210938 5.851563 7.523438 11.03125 12.699219 15.25 3.503906 3.035157 8.808593 2.652344 11.84375-.855469 3.03125-3.507812 2.648437-8.808593-.859375-11.84375-3.78125-2.949218-6.890625-6.667968-9.128906-10.910156l11.253906-8.503906c3.511718 6.328125 8.710937 11.554688 15.015625 15.109375 2.570312 1.660156 5.84375 1.792969 8.539062.339844 2.699219-1.453125 4.386719-4.257813 4.414063-7.320313.023437-3.0625-1.621094-5.894531-4.289063-7.390625-4.605469-2.273437-8.136719-6.257812-9.839843-11.105469l1.445312-1.082031c2.558594-1.988281 4.714844-4.449219 6.34375-7.25 3.953125 4.460938 8.953125 7.867188 14.554688 9.902344 2.816406 1.113281 6.015624.621094 8.371093-1.289063 2.351563-1.90625 3.492188-4.933593 2.988281-7.917968-.507812-2.988282-2.582031-5.46875-5.433593-6.496094-5.527344-1.796875-9.804688-6.222656-11.414063-11.808594zm-238.796876 127.890625c2.042969-.378906 4.074219-.753906 6.054688-1.183594 26.253906-5.582031 51.300781-12.078125 80.003906-19.808594-2.582031 11.859375-2.953125 24.097656-1.089844 36.09375-35.683593.097656-71.332031-2.144531-106.722656-6.714844 1.921875-1.820312 4.117188-3.324218 6.511719-4.449218 4.917969-1.882813 10.03125-3.203125 15.242187-3.9375zm432.304688 74.8125c-2.273438 4.628906-6.984375 7.558594-12.144531 7.550781h-372.515625c-25.707032.535156-51.207032-4.71875-74.609375-15.367187-6.757813-3.507813-8.890625-5.347657-9.585938-9.625 18.875 4.136718 101.746094 8.207031 285.636719 8.207031h184.65625v5.75l-.144531.367187c-.375 1.0625-.804688 2.101563-1.292969 3.117188zm0 0"/></svg>