<svg height="512pt" viewBox="0 -71 512 512" width="512pt" xmlns="http://www.w3.org/2000/svg"><path d="m501.425781 64.164062c-6.917969-26.042968-27.308593-46.546874-53.207031-53.511718-38.398438-10.351563-176.585938-10.652344-192.21875-10.652344s-153.820312.300781-192.210938 10.648438c-25.90625 6.96875-46.296874 27.472656-53.210937 53.503906-10.457031 39.269531-10.578125 117.296875-10.578125 120.597656s.121094 81.328125 10.574219 120.585938c6.917969 26.042968 27.308593 46.546874 53.207031 53.511718 38.398438 10.351563 176.585938 10.652344 192.21875 10.652344s153.820312-.300781 192.210938-10.648438c25.90625-6.96875 46.296874-27.472656 53.210937-53.503906 10.457031-39.269531 10.578125-117.296875 10.578125-120.597656s-.121094-81.328125-10.574219-120.585938zm-28.996093 233.472657c-4.167969 15.699219-16.4375 28.054687-32.019532 32.246093-29.253906 7.886719-143.035156 9.617188-184.410156 9.617188-41.371094 0-155.152344-1.730469-184.417969-9.621094-15.574219-4.1875-27.839843-16.542968-32.015625-32.253906-9.449218-35.476562-9.566406-112.105469-9.566406-112.875s.109375-77.363281 9.570312-112.886719c4.167969-15.699219 16.4375-28.054687 32.019532-32.246093 29.253906-7.886719 143.039062-9.617188 184.410156-9.617188s155.15625 1.730469 184.417969 9.621094c15.574219 4.1875 27.84375 16.542968 32.015625 32.253906 9.449218 35.476562 9.566406 112.105469 9.566406 112.875s-.109375 77.363281-9.570312 112.886719zm0 0"/><path d="m191.683594 282.304688 171.3125-97.550782-171.3125-97.558594zm30-143.5 80.6875 45.949218-80.6875 45.945313zm0 0"/></svg>